<?xml version="1.0" encoding="UTF-8"?>
<svg id="_Слой_2" data-name="Слой 2" xmlns="http://www.w3.org/2000/svg" viewBox="0 0 359 79.54">
  <defs>
    <style>
      .cls-1 {
        fill: #b64646;
      }
    </style>
  </defs>
  <g id="_Слой_2-2" data-name="Слой 2">
    <g>
      <path d="M0,76.45l5.12-11.13h.81l5.12,11.13h-.88l-4.83-10.62h.35l-4.82,10.62h-.88ZM1.88,73.32l.27-.68h6.66l.27.68H1.88Z"/>
      <path d="M17.97,76.53c-.83,0-1.59-.14-2.3-.42s-1.32-.68-1.84-1.19c-.52-.51-.92-1.1-1.21-1.79-.29-.68-.43-1.43-.43-2.25s.14-1.57.43-2.25c.29-.68.69-1.28,1.22-1.79.53-.51,1.14-.9,1.84-1.19.7-.28,1.46-.42,2.29-.42s1.52.13,2.2.38,1.27.64,1.76,1.16l-.51.52c-.48-.47-1-.8-1.58-1.01s-1.19-.31-1.84-.31c-.71,0-1.37.12-1.98.37-.61.24-1.14.59-1.59,1.03-.45.45-.8.96-1.05,1.56s-.37,1.24-.37,1.94.12,1.35.37,1.94.6,1.11,1.05,1.56c.45.45.98.79,1.59,1.03.61.24,1.27.37,1.98.37.65,0,1.26-.1,1.84-.31s1.11-.55,1.58-1.03l.51.52c-.49.52-1.07.91-1.76,1.17s-1.42.39-2.2.39Z"/>
      <path d="M26.58,76.45v-10.66l.24.25h-4.25v-.73h8.83v.73h-4.25l.24-.25v10.66h-.81Z"/>
      <path d="M33.56,76.45v-11.13h3.99c.93,0,1.73.15,2.4.45.67.3,1.18.72,1.54,1.28s.54,1.23.54,2.03-.18,1.44-.54,2c-.36.56-.88.99-1.54,1.29-.67.3-1.47.45-2.4.45h-3.55l.37-.38v4.02h-.81ZM34.37,72.48l-.37-.4h3.55c1.2,0,2.11-.26,2.73-.79s.93-1.26.93-2.22-.31-1.71-.93-2.23c-.62-.52-1.53-.79-2.73-.79h-3.55l.37-.4v6.82Z"/>
      <path d="M49.55,76.53c-.83,0-1.59-.14-2.3-.42s-1.32-.68-1.84-1.19c-.52-.51-.93-1.11-1.22-1.8-.29-.68-.43-1.43-.43-2.23s.14-1.55.43-2.23c.29-.68.69-1.28,1.22-1.8.53-.51,1.14-.91,1.84-1.19.71-.28,1.47-.42,2.3-.42s1.59.14,2.3.42c.71.28,1.32.68,1.84,1.19.52.51.92,1.1,1.22,1.79.29.68.44,1.43.44,2.25s-.15,1.57-.44,2.25c-.29.68-.7,1.28-1.22,1.79-.52.51-1.13.9-1.84,1.19-.71.28-1.47.42-2.3.42ZM49.55,75.79c.71,0,1.37-.12,1.97-.37.6-.24,1.13-.59,1.57-1.03s.79-.96,1.04-1.56c.25-.59.37-1.24.37-1.94s-.12-1.36-.37-1.95c-.25-.59-.6-1.11-1.04-1.55s-.97-.79-1.57-1.03c-.6-.24-1.26-.37-1.97-.37s-1.37.12-1.97.37c-.6.24-1.13.59-1.58,1.03-.45.45-.8.96-1.05,1.55s-.37,1.24-.37,1.95.12,1.35.37,1.94.6,1.11,1.05,1.56c.45.45.98.79,1.58,1.03.6.24,1.26.37,1.97.37Z"/>
      <path d="M56.97,76.53c-.13,0-.25,0-.37-.02s-.26-.04-.42-.07l.09-.75c.18.04.36.06.53.06.49,0,.88-.19,1.18-.57.3-.38.53-.98.69-1.8s.27-1.9.32-3.22l.16-4.83h7.3v11.13h-.81v-10.66l.24.25h-6.22l.24-.25-.16,4.34c-.04,1.12-.12,2.09-.24,2.89-.12.8-.28,1.46-.5,1.98-.22.52-.49.9-.83,1.15-.33.25-.73.37-1.2.37Z"/>
      <path d="M75.22,76.53c-.83,0-1.59-.14-2.3-.42s-1.32-.68-1.84-1.19c-.52-.51-.93-1.11-1.22-1.8-.29-.68-.43-1.43-.43-2.23s.14-1.55.43-2.23c.29-.68.69-1.28,1.22-1.8.53-.51,1.14-.91,1.84-1.19.71-.28,1.47-.42,2.3-.42s1.59.14,2.3.42c.71.28,1.32.68,1.84,1.19.52.51.92,1.1,1.22,1.79.29.68.44,1.43.44,2.25s-.15,1.57-.44,2.25c-.29.68-.7,1.28-1.22,1.79-.52.51-1.13.9-1.84,1.19-.71.28-1.47.42-2.3.42ZM75.22,75.79c.71,0,1.37-.12,1.97-.37.6-.24,1.13-.59,1.57-1.03s.79-.96,1.04-1.56c.25-.59.37-1.24.37-1.94s-.12-1.36-.37-1.95c-.25-.59-.6-1.11-1.04-1.55s-.97-.79-1.57-1.03c-.6-.24-1.26-.37-1.97-.37s-1.37.12-1.97.37c-.6.24-1.13.59-1.58,1.03-.45.45-.8.96-1.05,1.55s-.37,1.24-.37,1.95.12,1.35.37,1.94.6,1.11,1.05,1.56c.45.45.98.79,1.58,1.03.6.24,1.26.37,1.97.37Z"/>
      <path d="M84.02,76.45v-11.13h6.89v.73h-6.31l.24-.25v10.66h-.81Z"/>
      <path class="cls-1" d="M97.07,79.54v-14.89h.75v14.89h-.75Z"/>
      <path d="M104.01,79l.02-3.28h11.74v3.28h-.78v-2.54h-10.18l-.02,2.54h-.78ZM113.23,76.06v-10h-5.69l-.1,2.99c-.03.88-.08,1.72-.16,2.53-.08.81-.19,1.53-.33,2.17-.15.64-.35,1.16-.61,1.55-.26.39-.59.6-.98.64l-.94-.21c.45.03.81-.12,1.09-.46.28-.34.5-.82.67-1.45.16-.63.28-1.35.36-2.18.07-.83.13-1.71.16-2.66l.11-3.66h7.24v10.73h-.81Z"/>
      <path d="M119.16,75.72h6.87v.73h-7.68v-11.13h7.44v.73h-6.63v9.67ZM119.07,70.44h6.03v.72h-6.03v-.72Z"/>
      <path d="M129.55,76.45h-.81v-11.13h.81v11.13ZM137.09,71.16h-7.63v-.72h7.63v.72ZM136.99,65.32h.81v11.13h-.81v-11.13Z"/>
      <path d="M146.28,69.39c1.3,0,2.3.29,2.99.87.69.58,1.03,1.45,1.03,2.59s-.36,2.07-1.09,2.68c-.73.61-1.77.91-3.14.91h-4.26v-11.13h.81v4.07h3.66ZM146.09,75.77c1.11,0,1.96-.24,2.53-.73.57-.49.86-1.21.86-2.16s-.28-1.65-.85-2.11c-.57-.46-1.41-.69-2.54-.69h-3.47v5.69h3.47Z"/>
      <path d="M153.07,76.45v-11.13h6.89v.73h-6.31l.24-.25v10.66h-.81Z"/>
      <path d="M162.1,76.45v-11.13h.81v9.76l7.59-9.76h.72v11.13h-.81v-9.75l-7.59,9.75h-.72Z"/>
      <path class="cls-1" d="M179.25,79.54v-14.89h.75v14.89h-.75Z"/>
      <path d="M186.96,76.53c-.13,0-.25,0-.37-.02s-.26-.04-.42-.07l.09-.75c.18.04.36.06.53.06.49,0,.88-.19,1.18-.57.3-.38.53-.98.69-1.8s.27-1.9.32-3.22l.16-4.83h7.3v11.13h-.81v-10.66l.24.25h-6.22l.24-.25-.16,4.34c-.04,1.12-.12,2.09-.24,2.89-.12.8-.28,1.46-.5,1.98-.22.52-.49.9-.83,1.15-.33.25-.73.37-1.2.37Z"/>
      <path d="M200.44,76.45v-11.13h.81v5.1h2.86v.75h-2.86v5.28h-.81ZM209.22,76.53c-.78,0-1.51-.14-2.18-.42s-1.25-.68-1.74-1.19c-.49-.51-.88-1.1-1.15-1.79-.28-.68-.41-1.43-.41-2.25s.14-1.57.41-2.25c.28-.68.66-1.28,1.15-1.79.49-.51,1.07-.9,1.74-1.19.67-.28,1.39-.42,2.18-.42s1.5.14,2.17.42c.67.28,1.26.68,1.75,1.19.49.51.88,1.1,1.15,1.79.28.68.41,1.43.41,2.25s-.14,1.57-.41,2.25c-.28.68-.66,1.28-1.15,1.79-.49.51-1.08.9-1.75,1.19s-1.4.42-2.17.42ZM209.22,75.79c.66,0,1.27-.12,1.84-.37.57-.24,1.06-.59,1.49-1.03.42-.44.75-.96.99-1.55.23-.59.35-1.25.35-1.96s-.12-1.36-.35-1.96c-.23-.59-.56-1.11-.99-1.55-.42-.44-.92-.78-1.49-1.03-.57-.24-1.18-.37-1.84-.37s-1.27.12-1.84.37c-.57.24-1.06.59-1.48,1.03s-.75.96-.99,1.55c-.24.59-.36,1.25-.36,1.96s.12,1.36.36,1.96.57,1.11.99,1.55.91.78,1.48,1.03c.57.24,1.18.37,1.84.37Z"/>
      <path d="M217.73,76.45v-11.13h7.94v.72h-7.12v4.01h3.77c1.3,0,2.29.27,2.97.8s1.02,1.31,1.02,2.34-.36,1.88-1.07,2.44-1.76.83-3.14.83h-4.36ZM218.54,75.77h3.56c1.11,0,1.96-.21,2.53-.64.57-.43.86-1.07.86-1.92,0-1.66-1.13-2.5-3.39-2.5h-3.56v5.06Z"/>
      <path d="M234,76.53c-.83,0-1.59-.14-2.3-.42s-1.32-.68-1.84-1.19c-.52-.51-.93-1.11-1.22-1.8-.29-.68-.43-1.43-.43-2.23s.14-1.55.43-2.23c.29-.68.69-1.28,1.22-1.8.53-.51,1.14-.91,1.84-1.19.71-.28,1.47-.42,2.3-.42s1.59.14,2.3.42c.71.28,1.32.68,1.84,1.19.52.51.92,1.1,1.22,1.79.29.68.44,1.43.44,2.25s-.15,1.57-.44,2.25c-.29.68-.7,1.28-1.22,1.79-.52.51-1.13.9-1.84,1.19-.71.28-1.47.42-2.3.42ZM234,75.79c.71,0,1.37-.12,1.97-.37.6-.24,1.13-.59,1.57-1.03s.79-.96,1.04-1.56c.25-.59.37-1.24.37-1.94s-.12-1.36-.37-1.95c-.25-.59-.6-1.11-1.04-1.55s-.97-.79-1.57-1.03c-.6-.24-1.26-.37-1.97-.37s-1.37.12-1.97.37c-.6.24-1.13.59-1.58,1.03-.45.45-.8.96-1.05,1.55s-.37,1.24-.37,1.95.12,1.35.37,1.94.6,1.11,1.05,1.56c.45.45.98.79,1.58,1.03.6.24,1.26.37,1.97.37Z"/>
      <path d="M242.79,76.45v-11.13h4.48c1.15,0,2.05.24,2.71.72.66.48.99,1.18.99,2.11s-.32,1.62-.96,2.08c-.64.47-1.48.7-2.5.7l.27-.32c1.24,0,2.18.24,2.82.73.64.49.95,1.2.95,2.15s-.33,1.67-.99,2.19c-.66.51-1.65.77-2.99.77h-4.79ZM243.61,70.47h3.66c.92,0,1.64-.19,2.14-.56.5-.38.76-.93.76-1.66s-.25-1.3-.76-1.68c-.5-.38-1.22-.56-2.14-.56h-3.66v4.47ZM243.61,75.77h3.99c1.03,0,1.81-.19,2.35-.56.54-.38.8-.96.8-1.76s-.27-1.39-.8-1.76-1.32-.55-2.35-.55h-3.99v4.63Z"/>
      <path d="M259.19,69.39c1.3,0,2.3.29,2.99.87.69.58,1.03,1.45,1.03,2.59s-.36,2.07-1.09,2.68c-.73.61-1.77.91-3.14.91h-4.26v-11.13h.81v4.07h3.66ZM259,75.77c1.11,0,1.96-.24,2.53-.73.57-.49.86-1.21.86-2.16s-.28-1.65-.85-2.11c-.57-.46-1.41-.69-2.54-.69h-3.47v5.69h3.47Z"/>
      <path class="cls-1" d="M270,79.54v-14.89h.75v14.89h-.75Z"/>
      <path d="M278.78,76.45v-11.13h7.94v.72h-7.12v4.01h3.77c1.3,0,2.29.27,2.97.8s1.02,1.31,1.02,2.34-.36,1.88-1.07,2.44-1.76.83-3.14.83h-4.36ZM279.59,75.77h3.56c1.11,0,1.96-.21,2.53-.64.57-.43.86-1.07.86-1.92,0-1.66-1.13-2.5-3.39-2.5h-3.56v5.06Z"/>
      <path d="M293.1,74.39l-4.77-9.06h.89l4.34,8.35-.46.72ZM289.61,75.63c.52.2,1.02.25,1.51.14s.95-.51,1.38-1.18l.54-.84.09-.13,4.39-8.29h.84l-5.14,9.45c-.32.6-.69,1.05-1.12,1.34-.43.29-.88.44-1.35.45-.47.02-.94-.07-1.41-.26l.25-.67Z"/>
      <path d="M298.44,79l.02-3.28h11.74v3.28h-.78v-2.54h-10.18l-.02,2.54h-.78ZM307.66,76.06v-10h-5.69l-.1,2.99c-.03.88-.08,1.72-.16,2.53-.08.81-.19,1.53-.33,2.17-.15.64-.35,1.16-.61,1.55-.26.39-.59.6-.98.64l-.94-.21c.45.03.81-.12,1.09-.46.28-.34.5-.82.67-1.45.16-.63.28-1.35.36-2.18.07-.83.13-1.71.16-2.66l.11-3.66h7.24v10.73h-.81Z"/>
      <path d="M315.93,74.39l-4.77-9.06h.89l4.34,8.35-.46.72ZM312.45,75.63c.52.2,1.02.25,1.51.14s.95-.51,1.38-1.18l.54-.84.09-.13,4.39-8.29h.84l-5.14,9.45c-.32.6-.69,1.05-1.12,1.34-.43.29-.88.44-1.35.45-.47.02-.94-.07-1.41-.26l.25-.67Z"/>
      <path d="M329.72,75.72l-.22.25v-10.66h.81v10.66l-.24-.25h5.96l-.25.25v-10.66h.81v11.13h-13.38v-11.13h.81v10.66l-.24-.25h5.93ZM337.61,79v-2.8l.24.25h-2.08v-.73h2.61v3.28h-.76Z"/>
      <path d="M341.74,75.72h6.87v.73h-7.68v-11.13h7.44v.73h-6.63v9.67ZM341.65,70.44h6.03v.72h-6.03v-.72Z"/>
      <path d="M352.13,75.72h6.87v.73h-7.68v-11.13h7.44v.73h-6.63v9.67ZM352.03,70.44h6.03v.72h-6.03v-.72Z"/>
    </g>
    <g>
      <path d="M20.19,41.27c-2.69,0-5.12-.48-7.31-1.43-2.18-.95-4.05-2.27-5.6-3.95-1.55-1.68-2.74-3.61-3.58-5.8s-1.26-4.51-1.26-6.97c0-3.02.59-5.67,1.76-7.95,1.18-2.28,2.73-4.17,4.68-5.68,1.94-1.51,4.07-2.64,6.38-3.39,2.31-.75,4.61-1.12,6.89-1.12,2.76,0,5.24.5,7.42,1.48,2.18.99,4.04,2.32,5.57,4,1.53,1.68,2.7,3.58,3.5,5.71.8,2.13,1.2,4.31,1.2,6.55,0,2.61-.52,5.04-1.57,7.28-1.05,2.24-2.47,4.2-4.28,5.88-1.81,1.68-3.9,3-6.27,3.95-2.37.95-4.88,1.43-7.53,1.43ZM22.15,40.1c2.54,0,4.82-.61,6.83-1.82,2.02-1.21,3.62-3,4.82-5.35,1.2-2.35,1.79-5.23,1.79-8.62s-.64-6.62-1.93-9.32c-1.29-2.71-3.12-4.83-5.49-6.38-2.37-1.55-5.16-2.32-8.37-2.32-4.14,0-7.36,1.34-9.66,4-2.3,2.67-3.44,6.3-3.44,10.89,0,2.65.36,5.12,1.09,7.42.73,2.3,1.78,4.31,3.16,6.05,1.38,1.74,3.02,3.08,4.93,4.03s4,1.43,6.27,1.43Z"/>
      <path d="M44.83,40.6c-.11,0-.17-.11-.17-.34s.06-.34.17-.34c1.46,0,2.41-.25,2.86-.76.45-.5.67-1.54.67-3.11V7.11c0-1.31-.13-2.27-.39-2.88-.26-.62-.73-.92-1.4-.92-.56,0-1.42.26-2.58.78-.11.08-.22,0-.34-.22-.11-.22-.09-.35.06-.39L50.87.06c.07-.04.17-.06.28-.06.07,0,.18.05.31.14.13.09.2.2.2.31v35.62c0,1.57.2,2.6.62,3.11.41.5,1.36.76,2.86.76.11,0,.17.11.17.34s-.06.34-.17.34c-.63,0-1.4-.02-2.3-.06-.9-.04-1.85-.06-2.86-.06s-1.91.02-2.83.06c-.92.04-1.69.06-2.32.06Z"/>
      <path d="M66.72,56.39c-2.69,0-4.84-.64-6.44-1.93-1.61-1.29-2.41-2.9-2.41-4.84,0-1.2.33-2.35.98-3.47.65-1.12,1.61-2.23,2.88-3.33,1.27-1.1,2.84-2.21,4.7-3.33l.56.62c-.93.6-1.85,1.22-2.74,1.88-.9.65-1.63,1.44-2.21,2.35-.58.91-.87,2.08-.87,3.5,0,2.13.7,3.81,2.1,5.04,1.4,1.23,3.29,1.85,5.68,1.85,1.9,0,3.51-.35,4.82-1.04,1.31-.69,2.3-1.6,2.97-2.72.67-1.12,1.01-2.28,1.01-3.47s-.3-2.15-.9-2.86c-.6-.71-1.38-1.26-2.35-1.65s-2.04-.68-3.22-.87c-1.18-.19-2.34-.36-3.5-.5-1.16-.15-2.3-.36-3.42-.64-1.12-.28-2.05-.72-2.8-1.32-.75-.6-1.12-1.44-1.12-2.52,0-1.19.46-2.33,1.37-3.42.91-1.08,2.01-2,3.28-2.74l.39.39c-.75.45-1.33,1.01-1.76,1.68-.43.67-.64,1.38-.64,2.13,0,.86.31,1.53.92,2.02.62.49,1.42.84,2.41,1.06s2.01.41,3.05.56c1.31.19,2.61.39,3.92.62,1.31.22,2.51.55,3.61.98,1.1.43,1.99,1.04,2.66,1.85.67.8,1.01,1.89,1.01,3.28,0,1.27-.36,2.54-1.09,3.81-.73,1.27-1.73,2.44-3,3.5-1.27,1.06-2.75,1.92-4.45,2.58-1.7.65-3.5.98-5.4.98ZM68.01,31.92c-1.75,0-3.22-.31-4.4-.92s-2.08-1.45-2.72-2.49c-.64-1.04-.95-2.15-.95-3.3,0-1.31.37-2.45,1.12-3.44.75-.99,1.78-1.76,3.11-2.32s2.81-.84,4.45-.84c1.9,0,3.43.33,4.59.98,1.16.65,1.99,1.46,2.49,2.41.5.95.76,1.93.76,2.94,0,1.27-.35,2.44-1.04,3.5-.69,1.06-1.67,1.91-2.94,2.55-1.27.64-2.76.95-4.48.95ZM69.18,31.14c1.01,0,1.89-.38,2.66-1.15.77-.77,1.15-2.08,1.15-3.95,0-2.02-.59-3.62-1.76-4.82-1.18-1.19-2.51-1.79-4-1.79-1.05,0-1.94.35-2.69,1.06-.75.71-1.12,1.89-1.12,3.53,0,1.49.28,2.76.84,3.81.56,1.05,1.29,1.86,2.18,2.44.9.58,1.81.87,2.74.87ZM73.27,22.79l.06-1.85c1.12-.75,2.23-1.33,3.33-1.76,1.1-.43,2.32-.64,3.67-.64.07,0,.14.13.2.39.06.26.08.54.08.84,0,.41-.05.85-.14,1.32-.09.47-.21.66-.36.59-.37-.15-.88-.33-1.51-.53-.63-.2-1.36-.31-2.18-.31-.49,0-.94.04-1.37.11-.43.08-.85.17-1.26.28l-.5,1.57Z"/>
      <path d="M87.22,40.99c-1.2,0-2.09-.33-2.69-.98-.6-.65-.9-1.41-.9-2.27,0-1.04.41-1.88,1.23-2.49.82-.62,2.17-1.24,4.03-1.88l7.34-2.63.17.62-6.5,2.46c-.86.34-1.47.71-1.82,1.12-.35.41-.53.93-.53,1.57,0,.78.22,1.39.67,1.82.45.43,1.03.64,1.74.64.41,0,.8-.05,1.18-.14.37-.09.75-.23,1.12-.42l4.76-2.41.11.67-4.87,2.63c-1.12.56-2.05.98-2.8,1.26-.75.28-1.49.42-2.24.42ZM98.19,40.94c-.15.07-.3.11-.45.11-.49,0-.95-.4-1.4-1.2-.45-.8-.67-1.97-.67-3.5v-10.02c0-1.75-.16-3.12-.48-4.09-.32-.97-.75-1.64-1.29-2.02-.54-.37-1.15-.56-1.82-.56-.93,0-1.7.23-2.3.7-.6.47-1.04,1.06-1.34,1.76-.3.71-.5,1.42-.62,2.13-.04.52-.2,1.01-.48,1.46-.28.45-.81.67-1.6.67-.6,0-1.06-.15-1.4-.45-.34-.3-.5-.71-.5-1.23,0-.67.34-1.37,1.01-2.1s1.52-1.4,2.55-2.02c1.03-.62,2.11-1.12,3.25-1.51,1.14-.39,2.21-.59,3.22-.59,1.42,0,2.59.5,3.53,1.48.93.99,1.4,2.55,1.4,4.68v9.91c0,1.31.17,2.26.5,2.86.34.6.88.9,1.62.9.67,0,1.6-.24,2.8-.73.19-.07.32,0,.39.2.08.21.02.35-.17.42l-5.77,2.74Z"/>
      <path d="M127.7,6.61c-2.32,0-4.06.6-5.24,1.79-1.18,1.2-2.03,3.23-2.55,6.1,0,.08-.1.11-.31.11s-.31-.04-.31-.11c.07-.48.15-1.17.22-2.04.08-.88.16-1.82.25-2.83.09-1.01.17-1.99.22-2.94.06-.95.08-1.73.08-2.32,0-.19.1-.28.31-.28s.31.09.31.28c0,.37.19.64.56.81s.79.28,1.26.34.87.08,1.2.08c3.21.11,6.96.17,11.26.17,2.65,0,4.75-.03,6.3-.08,1.55-.06,3.05-.08,4.51-.08,1.27,0,2.25-.08,2.94-.25s1.13-.55,1.32-1.15c.04-.15.15-.22.34-.22s.28.08.28.22c-.04.56-.09,1.33-.17,2.3-.08.97-.13,1.98-.17,3.02-.04,1.05-.08,2.02-.11,2.91-.04.9-.06,1.59-.06,2.07,0,.08-.11.11-.34.11s-.34-.04-.34-.11c-.11-2.91-.71-4.96-1.79-6.13-1.08-1.18-2.88-1.76-5.38-1.76-1.57,0-2.74.08-3.53.22-.78.15-1.3.48-1.54.98-.24.5-.36,1.32-.36,2.44v25.82c0,1.08.13,1.9.39,2.46.26.56.77.93,1.54,1.12.77.19,1.93.28,3.5.28.11,0,.17.11.17.34s-.06.34-.17.34c-.97,0-2.07-.02-3.3-.06-1.23-.04-2.58-.06-4.03-.06-1.38,0-2.69.02-3.92.06-1.23.04-2.35.06-3.36.06-.08,0-.11-.11-.11-.34s.04-.34.11-.34c1.53,0,2.7-.09,3.5-.28.8-.19,1.33-.56,1.6-1.12.26-.56.39-1.38.39-2.46V10.14c0-1.12-.13-1.93-.39-2.44-.26-.5-.78-.81-1.57-.92-.78-.11-1.96-.17-3.53-.17Z"/>
      <path d="M154.14,40.6c-.11,0-.17-.11-.17-.34s.06-.34.17-.34c1.46,0,2.41-.25,2.86-.76.45-.5.67-1.54.67-3.11V7.11c0-1.31-.13-2.27-.39-2.88-.26-.62-.73-.92-1.4-.92-.56,0-1.42.26-2.58.78-.15.08-.27,0-.36-.22-.09-.22-.07-.35.08-.39L160.02.06c.11-.04.21-.06.28-.06.11,0,.22.05.34.14.11.09.17.2.17.31v35.62c0,1.57.22,2.6.67,3.11.45.5,1.4.76,2.86.76.11,0,.17.11.17.34s-.06.34-.17.34c-.67,0-1.44-.02-2.3-.06-.86-.04-1.79-.06-2.8-.06s-1.9.02-2.8.06c-.9.04-1.66.06-2.3.06ZM159.79,31.25l-.22-.67,8.74-7.06c1.46-1.16,2.04-2.09,1.76-2.8-.28-.71-1.33-1.06-3.16-1.06-.11,0-.17-.11-.17-.34s.06-.34.17-.34c.9,0,1.8.02,2.72.06.91.04,2.14.06,3.67.06,1.42,0,2.55-.02,3.39-.06.84-.04,1.63-.06,2.38-.06.11,0,.17.11.17.34s-.06.34-.17.34c-.86,0-1.81.14-2.86.42-1.04.28-2.14.72-3.28,1.32-1.14.6-2.31,1.36-3.5,2.3l-9.63,7.56ZM168.19,40.6c-.08,0-.11-.11-.11-.34s.04-.34.11-.34c1.34,0,2.2-.18,2.58-.53.37-.35.28-.94-.28-1.76l-7.11-9.69,2.63-1.9,7.28,10.02c1.01,1.46,2.06,2.46,3.16,3.02,1.1.56,2.19.84,3.28.84.11,0,.17.11.17.34s-.06.34-.17.34c-.67,0-1.44-.02-2.3-.06-.86-.04-1.79-.06-2.8-.06-1.42,0-2.63.02-3.64.06-1.01.04-1.94.06-2.8.06Z"/>
      <path d="M186.78,40.99c-1.2,0-2.09-.33-2.69-.98-.6-.65-.9-1.41-.9-2.27,0-1.04.41-1.88,1.23-2.49.82-.62,2.17-1.24,4.03-1.88l7.34-2.63.17.62-6.5,2.46c-.86.34-1.47.71-1.82,1.12-.35.41-.53.93-.53,1.57,0,.78.22,1.39.67,1.82.45.43,1.03.64,1.74.64.41,0,.8-.05,1.18-.14.37-.09.75-.23,1.12-.42l4.76-2.41.11.67-4.87,2.63c-1.12.56-2.05.98-2.8,1.26-.75.28-1.49.42-2.24.42ZM197.76,40.94c-.15.07-.3.11-.45.11-.49,0-.95-.4-1.4-1.2-.45-.8-.67-1.97-.67-3.5v-10.02c0-1.75-.16-3.12-.48-4.09-.32-.97-.75-1.64-1.29-2.02-.54-.37-1.15-.56-1.82-.56-.93,0-1.7.23-2.3.7-.6.47-1.04,1.06-1.34,1.76-.3.71-.5,1.42-.62,2.13-.04.52-.2,1.01-.48,1.46-.28.45-.81.67-1.6.67-.6,0-1.06-.15-1.4-.45-.34-.3-.5-.71-.5-1.23,0-.67.34-1.37,1.01-2.1s1.52-1.4,2.55-2.02c1.03-.62,2.11-1.12,3.25-1.51,1.14-.39,2.21-.59,3.22-.59,1.42,0,2.59.5,3.53,1.48.93.99,1.4,2.55,1.4,4.68v9.91c0,1.31.17,2.26.5,2.86.34.6.88.9,1.62.9.67,0,1.6-.24,2.8-.73.19-.07.32,0,.39.2.08.21.02.35-.17.42l-5.77,2.74Z"/>
      <path d="M216.57,41.27c-2.54,0-4.61-.55-6.22-1.65s-2.79-2.5-3.56-4.2c-.77-1.7-1.15-3.42-1.15-5.18,0-1.87.36-3.53,1.09-4.98.73-1.46,1.69-2.69,2.88-3.7,1.19-1.01,2.52-1.77,3.98-2.3,1.46-.52,2.88-.78,4.26-.78,1.08,0,2.12.14,3.11.42.99.28,1.81.68,2.46,1.2.65.52.98,1.12.98,1.79,0,.49-.17.91-.5,1.26-.34.35-.82.53-1.46.53-.6,0-1.09-.19-1.48-.56-.39-.37-.72-.8-.98-1.29-.41-.67-.9-1.21-1.46-1.62-.56-.41-1.4-.62-2.52-.62-2.13,0-3.77.83-4.93,2.49-1.16,1.66-1.74,3.82-1.74,6.47,0,1.9.33,3.68.98,5.32.65,1.64,1.67,2.96,3.05,3.95,1.38.99,3.17,1.48,5.38,1.48,1.01,0,2-.13,2.97-.39.97-.26,1.88-.75,2.74-1.46.07-.07.18-.04.31.11.13.15.16.26.08.34-1.31,1.16-2.61,2.01-3.92,2.55-1.31.54-2.76.81-4.37.81Z"/>
      <path d="M228.11,40.6c-.11,0-.17-.11-.17-.34s.06-.34.17-.34c1.46,0,2.41-.25,2.86-.76.45-.5.67-1.54.67-3.11V7.11c0-1.31-.13-2.27-.39-2.88-.26-.62-.73-.92-1.4-.92-.56,0-1.42.26-2.58.78-.15.08-.27,0-.36-.2-.09-.2-.07-.34.08-.42l7.11-3.47h.17c.11,0,.22.05.34.14.11.09.17.2.17.31v35.62c0,1.57.22,2.6.67,3.11.45.5,1.4.76,2.86.76.11,0,.17.11.17.34s-.06.34-.17.34c-.67,0-1.44-.02-2.3-.06-.86-.04-1.79-.06-2.8-.06s-1.9.02-2.8.06c-.9.04-1.66.06-2.3.06ZM243.17,40.6c-.11,0-.17-.11-.17-.34s.06-.34.17-.34c1.46,0,2.41-.25,2.86-.76.45-.5.67-1.54.67-3.11v-8.9c0-4.37-1.72-6.55-5.15-6.55-1.38,0-2.78.44-4.2,1.32-1.42.88-2.63,2.06-3.64,3.56l-.22-.67c1.64-2.24,3.28-3.86,4.9-4.87,1.62-1.01,3.29-1.51,5.01-1.51,2.05,0,3.64.57,4.76,1.71,1.12,1.14,1.68,2.83,1.68,5.07v10.86c0,1.57.22,2.6.67,3.11.45.5,1.4.76,2.86.76.11,0,.17.11.17.34s-.06.34-.17.34c-.67,0-1.44-.02-2.3-.06-.86-.04-1.79-.06-2.8-.06s-1.9.02-2.8.06c-.9.04-1.66.06-2.3.06Z"/>
      <path d="M267.14,41.27c-2.32,0-4.26-.51-5.82-1.54-1.57-1.03-2.74-2.36-3.53-4-.78-1.64-1.18-3.38-1.18-5.21,0-2.28.53-4.32,1.6-6.13,1.06-1.81,2.5-3.25,4.31-4.31,1.81-1.06,3.85-1.6,6.13-1.6,2.05,0,3.63.5,4.73,1.48,1.1.99,1.65,2.34,1.65,4.06,0,.41-.04.73-.11.95-.08.22-.26.34-.56.34h-3.25c.15-1.83-.18-3.24-.98-4.23-.8-.99-1.93-1.48-3.39-1.48-2.09,0-3.69.78-4.79,2.35-1.1,1.57-1.65,3.7-1.65,6.38,0,2.13.34,4.01,1.04,5.66.69,1.64,1.7,2.94,3.02,3.89,1.32.95,2.9,1.43,4.73,1.43.97,0,1.96-.15,2.97-.45,1.01-.3,1.96-.77,2.86-1.4.07-.07.18-.03.31.14s.16.31.08.42c-1.34,1.16-2.69,1.99-4.03,2.49-1.34.5-2.73.76-4.14.76ZM259.3,25.42l-.06-.73,12.77-.28v.9l-12.71.11Z"/>
      <path d="M279.96,40.6c-.11,0-.17-.11-.17-.34s.06-.34.17-.34c1.46,0,2.4-.25,2.83-.76.43-.5.64-1.54.64-3.11v-11.09c0-1.23-.14-2.14-.42-2.72-.28-.58-.79-.87-1.54-.87-.37,0-.81.08-1.32.22-.5.15-1.07.35-1.71.62-.15.04-.27-.04-.36-.22-.09-.19-.07-.32.08-.39l6.5-3.08c.11-.04.22-.06.34-.06.26,0,.6.39,1.01,1.18.41.78.62,1.92.62,3.42v12.99c0,1.57.21,2.6.64,3.11.43.5,1.37.76,2.83.76.11,0,.17.11.17.34s-.06.34-.17.34c-.64,0-1.39-.02-2.27-.06-.88-.04-1.8-.06-2.77-.06s-1.9.02-2.8.06c-.9.04-1.66.06-2.3.06ZM295.03,40.6c-.11,0-.17-.11-.17-.34s.06-.34.17-.34c1.46,0,2.4-.25,2.83-.76.43-.5.64-1.54.64-3.11v-9.07c0-2.24-.41-3.87-1.23-4.9-.82-1.03-2.13-1.54-3.92-1.54-1.34,0-2.73.43-4.14,1.29-1.42.86-2.63,2.04-3.64,3.53l-.22-.67c1.64-2.2,3.28-3.83,4.9-4.87,1.62-1.04,3.28-1.57,4.96-1.57,2.05,0,3.65.57,4.79,1.71,1.14,1.14,1.71,2.85,1.71,5.12v10.98c0,1.57.21,2.6.64,3.11.43.5,1.37.76,2.83.76.11,0,.17.11.17.34s-.06.34-.17.34c-.63,0-1.39-.02-2.27-.06-.88-.04-1.8-.06-2.77-.06s-1.9.02-2.8.06c-.9.04-1.66.06-2.3.06Z"/>
      <path d="M307.85,40.6c-.11,0-.17-.11-.17-.34s.06-.34.17-.34c1.46,0,2.41-.25,2.86-.76.45-.5.67-1.54.67-3.11V7.11c0-1.31-.13-2.27-.39-2.88-.26-.62-.73-.92-1.4-.92-.56,0-1.42.26-2.58.78-.15.08-.27,0-.36-.22-.09-.22-.07-.35.08-.39l7-3.42c.11-.04.21-.06.28-.06.11,0,.22.05.34.14.11.09.17.2.17.31v35.62c0,1.57.22,2.6.67,3.11.45.5,1.4.76,2.86.76.11,0,.17.11.17.34s-.06.34-.17.34c-.67,0-1.44-.02-2.3-.06-.86-.04-1.79-.06-2.8-.06s-1.9.02-2.8.06c-.9.04-1.66.06-2.3.06ZM313.51,31.25l-.22-.67,8.74-7.06c1.46-1.16,2.04-2.09,1.76-2.8-.28-.71-1.33-1.06-3.16-1.06-.11,0-.17-.11-.17-.34s.06-.34.17-.34c.9,0,1.8.02,2.72.06.91.04,2.14.06,3.67.06,1.42,0,2.55-.02,3.39-.06.84-.04,1.63-.06,2.38-.06.11,0,.17.11.17.34s-.06.34-.17.34c-.86,0-1.81.14-2.86.42-1.04.28-2.14.72-3.28,1.32-1.14.6-2.31,1.36-3.5,2.3l-9.63,7.56ZM321.91,40.6c-.08,0-.11-.11-.11-.34s.04-.34.11-.34c1.34,0,2.2-.18,2.58-.53.37-.35.28-.94-.28-1.76l-7.11-9.69,2.63-1.9,7.28,10.02c1.01,1.46,2.06,2.46,3.16,3.02,1.1.56,2.19.84,3.28.84.11,0,.17.11.17.34s-.06.34-.17.34c-.67,0-1.44-.02-2.3-.06-.86-.04-1.79-.06-2.8-.06-1.42,0-2.63.02-3.64.06-1.01.04-1.94.06-2.8.06Z"/>
      <path d="M345.82,41.33c-2.2,0-4.12-.54-5.77-1.62-1.64-1.08-2.91-2.53-3.81-4.34-.9-1.81-1.34-3.76-1.34-5.85,0-1.94.35-3.62,1.06-5.04.71-1.42,1.66-2.58,2.86-3.5,1.2-.91,2.49-1.6,3.89-2.04,1.4-.45,2.77-.67,4.12-.67,2.28,0,4.23.56,5.85,1.68s2.87,2.56,3.72,4.31c.86,1.76,1.29,3.6,1.29,5.54,0,2.39-.54,4.44-1.62,6.16-1.08,1.72-2.52,3.04-4.31,3.98-1.79.93-3.77,1.4-5.94,1.4ZM347.45,40.26c1.98,0,3.55-.7,4.7-2.1s1.74-3.67,1.74-6.8c0-2.35-.38-4.43-1.15-6.24-.77-1.81-1.82-3.23-3.16-4.26-1.34-1.03-2.88-1.54-4.59-1.54-1.98,0-3.53.73-4.65,2.18-1.12,1.46-1.68,3.55-1.68,6.27,0,2.28.37,4.37,1.12,6.27.75,1.9,1.78,3.42,3.11,4.54,1.32,1.12,2.85,1.68,4.56,1.68Z"/>
    </g>
  </g>
</svg>